Coordinates
version=1
nRows=17
nColumns=24
inDegrees=yes

Units are S.I. units (second, meters, Newtons, ...)
Angles are in degrees.

endheader
time	pelvis_tilt	pelvis_list	pelvis_rotation	pelvis_tx	pelvis_ty	pelvis_tz	hip_flexion_r	hip_adduction_r	hip_rotation_r	knee_angle_r	ankle_angle_r	subtalar_angle_r	mtp_angle_r	hip_flexion_l	hip_adduction_l	hip_rotation_l	knee_angle_l	ankle_angle_l	subtalar_angle_l	mtp_angle_l	lumbar_extension	lumbar_bending	lumbar_rotation
      5.37000000	      1.05590182	      6.68480387	     -5.70326135	      2.41289165	      0.67810576	     -0.16558637	     14.04923871	     -8.03771815	     -1.27007505	    -68.72202393	    -12.42367544	    -28.56283317	      0.00000000	     -5.98154069	     12.90575272	     11.98172862	      5.03709324	      5.10013200	     -9.88291246	      0.00000000	     -3.11259305	     -6.88171021	      3.61068826
      5.38000000	      0.84301603	      6.64536289	     -4.54495430	      2.42706024	      0.67669920	     -0.16667717	     17.12809771	     -7.53407831	     -0.23701984	    -69.80475392	     -9.65211754	    -27.06882899	      0.00000000	     -8.18212503	     12.51355041	     15.41559436	      6.77124301	      4.56840847	    -12.15890861	      0.00000000	     -3.64980249	     -6.79807877	      1.43056086
      5.39000000	      0.54338788	      6.79681918	     -3.30372738	      2.44097530	      0.67482430	     -0.16778814	     20.22399209	     -7.23457457	      0.95926865	    -70.38171618	     -7.36059779	    -26.71353530	      0.00000000	     -9.84402645	     12.36826843	     18.11308491	      7.72254286	      4.77872501	    -13.55714283	      0.00000000	     -4.21208741	     -6.95935011	     -0.74549363
      5.40000000	      0.18499143	      7.03915196	     -1.93712079	      2.45471488	      0.67268095	     -0.16898340	     23.19660354	     -7.07834477	      2.25635493	    -70.31883190	     -5.86625193	    -27.66904198	      0.00000000	    -11.15335957	     12.37277527	     20.28699336	      8.11133280	      5.47161678	    -14.19485498	      0.00000000	     -4.80422887	     -7.22218032	     -2.96649156
      5.41000000	     -0.03000217	      7.20460130	     -0.60300970	      2.46830807	      0.67047569	     -0.17010921	     25.79233143	     -6.88646888	      3.67536529	    -69.56063969	     -4.81427405	    -29.24374282	      0.00000000	    -12.60091014	     12.23353412	     22.86888222	      8.50170408	      5.95300314	    -15.83811754	      0.00000000	     -5.64132407	     -7.40282166	     -4.92445539
      5.42000000	     -0.21669963	      7.36497304	      0.79099139	      2.48180154	      0.66839570	     -0.17137209	     28.06638446	     -6.85075691	      5.04610865	    -68.02260033	     -3.61256898	    -30.70389871	      0.00000000	    -13.86345355	     12.17732500	     24.44750849	      8.43171856	      7.12309842	    -15.85266471	      0.00000000	     -6.55170108	     -7.52672964	     -6.86423334
      5.43000000	     -0.57815196	      7.32123844	      2.15647694	      2.49521509	      0.66628452	     -0.17264269	     30.16049206	     -6.72350182	      6.35980341	    -65.55451753	     -3.36756458	    -33.02166394	      0.00000000	    -14.95727592	     11.84893560	     26.05367035	      8.47259686	      7.79905845	    -16.43141945	      0.00000000	     -7.22725917	     -7.36739024	     -8.56520810
      5.44000000	     -1.00566908	      7.15707353	      3.48079151	      2.50860307	      0.66432274	     -0.17404608	     31.96437956	     -6.72593288	      7.41109152	    -62.20497164	     -2.50579742	    -34.17970905	      0.00000000	    -15.90812792	     11.42421019	     27.13211023	      8.40896839	      8.68028310	    -16.31717743	      0.00000000	     -7.76542814	     -7.00181078	    -10.09507446
      5.45000000	     -1.50246854	      6.80559004	      4.69242347	      2.52202711	      0.66252330	     -0.17545275	     33.35794487	     -6.72347834	      8.21403983	    -57.76317875	     -2.87892401	    -36.12141407	      0.00000000	    -16.74938126	     10.81161232	     27.89186086	      8.37764258	      9.35985862	    -16.15572760	      0.00000000	     -8.13386902	     -6.39335713	    -11.31493488
      5.46000000	     -2.10808551	      6.34413248	      5.81307917	      2.53560671	      0.66082568	     -0.17702356	     34.38598328	     -6.88991614	      8.53148153	    -52.31786911	     -3.08706891	    -37.19069556	      0.00000000	    -17.42913478	     10.12775948	     28.31378459	      8.31608318	      9.97370465	    -15.68066897	      0.00000000	     -8.24415541	     -5.58824012	    -12.27806765
      5.47000000	     -2.69010489	      5.82749982	      6.82600995	      2.54945956	      0.65931075	     -0.17870889	     34.82485734	     -7.20899312	      8.30242205	    -45.83133794	     -3.74432265	    -37.84825705	      0.00000000	    -18.07840564	      9.43661360	     28.34753713	      8.17832623	     10.41308964	    -14.88047763	      0.00000000	     -8.25405858	     -4.66316405	    -13.07875362
      5.48000000	     -3.21468121	      5.35001804	      7.79697168	      2.56369626	      0.65790877	     -0.18056835	     34.62506873	     -7.74321272	      7.34073658	    -38.45315011	     -4.22263306	    -37.49969073	      0.00000000	    -18.72836270	      8.80756398	     28.34613146	      7.87953487	     10.84261519	    -14.09741961	      0.00000000	     -8.20837074	     -3.72232026	    -13.71708673
      5.49000000	     -3.49352145	      4.99319117	      8.74632551	      2.57853367	      0.65669636	     -0.18251485	     33.60556554	     -8.42107051	      5.50211033	    -30.44974802	     -4.42022621	    -36.00410900	      0.00000000	    -19.59375589	      8.27296912	     28.24483761	      7.38843231	     11.15646136	    -13.02371010	      0.00000000	     -8.30910130	     -2.87188522	    -14.23615579
      5.50000000	     -3.58794035	      4.83876595	      9.70321085	      2.59400883	      0.65554809	     -0.18451684	     32.06768409	     -9.18042522	      2.58215100	    -22.49263302	     -3.12433101	    -31.93138548	      0.00000000	    -20.52927592	      7.94735853	     27.94967717	      6.47259052	     11.75262965	    -11.42974468	      0.00000000	     -8.51476665	     -2.22037896	    -14.73656852
      5.51000000	     -3.36802285	      4.85214891	     10.65965518	      2.61012472	      0.65456130	     -0.18639407	     30.08832399	     -9.76596023	     -1.36784460	    -15.19808399	     -0.97819825	    -25.97159091	      0.00000000	    -21.71754970	      7.67569458	     27.88596431	      5.28573785	     12.13682415	     -9.95759139	      0.00000000	     -8.99817374	     -1.74510760	    -15.21156258
      5.52000000	     -2.98809993	      4.94296055	     11.53307417	      2.62675915	      0.65370387	     -0.18801895	     28.07866240	     -9.96257370	     -5.87562655	     -9.17849100	      1.63718536	    -18.82133001	      0.00000000	    -22.86061297	      7.47233533	     27.71885136	      3.62623798	     12.45690486	     -8.34990243	      0.00000000	     -9.59908744	     -1.37793206	    -15.61121296
      5.53000000	     -2.58970321	      5.02717802	     12.24944193	      2.64371833	      0.65299257	     -0.18935036	     26.31017640	     -9.71068825	     -9.92556661	     -4.69005772	      3.84185596	    -12.18425392	      0.00000000	    -23.67815172	      7.36671910	     27.11671168	      1.32874286	     12.80569517	     -6.26438280	      0.00000000	    -10.17445797	     -1.05599554	    -15.87048997
